<?xml version="1.0" encoding="utf-8"?>
<svg xmlns="http://www.w3.org/2000/svg" viewBox="69.989 148.889 355.7844 46" width="355.784px" height="46px" preserveAspectRatio="none">
<style>
    .s0 { fill: #000000 } 
    .st0{fill:#2F4450;}
    .st1{fill:#5BAAEC;}
    .st2{fill: rgb(143, 140, 241)}
</style>
<g id="object-0">
    <path d="M 111.15 157.42 L 99.66 185.89 L 91.09 164.48 L 82.5 185.89 L 71.01 157.42 L 75.42 157.42 L 82.5 174.88 L 89.53 157.42 L 92.63 157.42 L 99.68 174.86 L 106.76 157.42 Z M 135.26 185.89 L 113.17 185.89 L 113.17 157.42 L 135.26 157.42 L 135.26 161.61 L 117.35 161.61 L 117.35 169.54 L 134.17 169.54 L 134.17 173.73 L 117.35 173.73 L 117.35 181.71 L 135.26 181.71 Z M 137.31 185.89 L 137.31 157.42 L 152.04 157.42 Q 153.74 157.42 155.24 158.05 Q 156.73 158.68 157.84 159.77 Q 158.95 160.87 159.58 162.36 Q 160.22 163.84 160.22 165.55 Q 160.22 167.14 159.62 168.59 Q 159.03 170.04 157.9 171.18 Q 159.42 172.35 160.28 174.09 Q 161.14 175.82 161.14 177.73 Q 161.14 179.41 160.5 180.9 Q 159.85 182.38 158.73 183.49 Q 157.61 184.6 156.13 185.24 Q 154.64 185.89 152.94 185.89 Z M 141.5 161.61 L 141.5 169.54 L 152.04 169.54 Q 152.88 169.54 153.61 169.23 Q 154.33 168.91 154.87 168.38 Q 155.4 167.84 155.72 167.1 Q 156.04 166.37 156.04 165.55 Q 156.04 164.7 155.72 163.99 Q 155.4 163.27 154.87 162.75 Q 154.33 162.22 153.61 161.92 Q 152.88 161.61 152.04 161.61 Z M 141.5 173.73 L 141.5 181.71 L 152.94 181.71 Q 153.78 181.71 154.51 181.4 Q 155.24 181.09 155.77 180.56 Q 156.3 180.02 156.62 179.3 Q 156.94 178.57 156.94 177.73 Q 156.94 176.89 156.62 176.16 Q 156.3 175.43 155.77 174.9 Q 155.24 174.36 154.51 174.05 Q 153.78 173.73 152.94 173.73 Z M 176.56 186.3 Q 174.49 186.3 172.58 185.78 Q 170.67 185.25 169.02 184.3 Q 167.37 183.35 166.03 182.01 Q 164.69 180.68 163.73 179.05 Q 162.78 177.42 162.26 175.54 Q 161.73 173.67 161.73 171.64 Q 161.73 168.52 162.9 165.81 Q 164.07 163.1 166.09 161.11 Q 168.11 159.11 170.81 157.96 Q 173.51 156.81 176.56 156.81 Q 179.68 156.81 182.38 157.98 Q 185.09 159.15 187.09 161.17 Q 189.09 163.19 190.24 165.88 Q 191.39 168.58 191.39 171.64 Q 191.39 173.71 190.85 175.6 Q 190.32 177.5 189.36 179.13 Q 188.39 180.76 187.03 182.08 Q 185.67 183.41 184.03 184.34 Q 182.38 185.27 180.49 185.79 Q 178.59 186.3 176.56 186.3 Z M 176.56 182.12 Q 178.8 182.12 180.74 181.3 Q 182.69 180.47 184.13 179.06 Q 185.56 177.64 186.38 175.73 Q 187.2 173.81 187.2 171.64 Q 187.2 169.4 186.36 167.45 Q 185.52 165.5 184.07 164.07 Q 182.61 162.63 180.68 161.81 Q 178.76 160.99 176.56 160.99 Q 174.35 160.99 172.4 161.84 Q 170.45 162.69 169.01 164.14 Q 167.58 165.59 166.75 167.52 Q 165.92 169.46 165.92 171.64 Q 165.92 173.85 166.77 175.77 Q 167.62 177.69 169.07 179.1 Q 170.51 180.52 172.45 181.32 Q 174.39 182.12 176.56 182.12 Z M 197.62 185.89 L 193.44 185.89 L 193.44 157.42 L 207.61 157.42 Q 209.62 157.42 211.37 158.17 Q 213.12 158.92 214.44 160.22 Q 215.75 161.53 216.51 163.27 Q 217.27 165.01 217.27 167.02 Q 217.27 168.48 216.85 169.84 Q 216.43 171.21 215.65 172.36 Q 214.87 173.52 213.77 174.44 Q 212.67 175.35 211.32 175.9 L 218.13 185.89 L 213.06 185.89 L 206.75 176.64 L 197.62 176.64 Z M 197.62 161.61 L 197.62 172.46 L 208.14 172.46 Q 209.13 172.46 210.02 171.97 Q 210.91 171.49 211.59 170.71 Q 212.26 169.93 212.66 168.96 Q 213.06 167.99 213.06 167.02 Q 213.06 165.89 212.63 164.91 Q 212.2 163.93 211.46 163.19 Q 210.72 162.45 209.73 162.03 Q 208.74 161.61 207.61 161.61 Z M 224.79 185.89 L 220.17 185.89 L 234.42 157.42 L 248.68 185.89 L 243.49 185.89 L 234.42 166.51 Z" style="text-wrap-mode: nowrap;" class="st0"/>
<path d="M 267.25 185.89 L 263.06 185.89 L 263.06 157.42 L 265.75 157.42 L 277.21 177.56 L 288.68 157.42 L 291.37 157.42 L 291.37 185.89 L 287.18 185.89 L 287.2 168.54 L 277.24 185.89 L 267.23 168.54 Z M 308.22 186.3 Q 306.15 186.3 304.24 185.78 Q 302.33 185.25 300.68 184.3 Q 299.03 183.35 297.69 182.01 Q 296.35 180.68 295.39 179.05 Q 294.44 177.42 293.92 175.54 Q 293.39 173.67 293.39 171.64 Q 293.39 168.52 294.56 165.81 Q 295.73 163.1 297.75 161.11 Q 299.77 159.11 302.47 157.96 Q 305.16 156.81 308.22 156.81 Q 311.34 156.81 314.04 157.98 Q 316.75 159.15 318.75 161.17 Q 320.75 163.19 321.9 165.88 Q 323.05 168.58 323.05 171.64 Q 323.05 173.71 322.51 175.6 Q 321.98 177.5 321.02 179.13 Q 320.05 180.76 318.69 182.08 Q 317.33 183.41 315.68 184.34 Q 314.04 185.27 312.15 185.79 Q 310.25 186.3 308.22 186.3 Z M 308.22 182.12 Q 310.46 182.12 312.4 181.3 Q 314.35 180.47 315.79 179.06 Q 317.22 177.64 318.04 175.73 Q 318.86 173.81 318.86 171.64 Q 318.86 169.4 318.02 167.45 Q 317.18 165.5 315.73 164.07 Q 314.27 162.63 312.34 161.81 Q 310.41 160.99 308.22 160.99 Q 306 160.99 304.06 161.84 Q 302.11 162.69 300.67 164.14 Q 299.24 165.59 298.41 167.52 Q 297.58 169.46 297.58 171.64 Q 297.58 173.85 298.43 175.77 Q 299.28 177.69 300.72 179.1 Q 302.17 180.52 304.11 181.32 Q 306.05 182.12 308.22 182.12 Z M 335.93 185.89 L 331.73 185.89 L 331.73 161.61 L 321.39 161.61 L 321.39 157.42 L 346.27 157.42 L 346.27 161.61 L 335.93 161.61 Z M 359.45 186.3 Q 357.38 186.3 355.48 185.78 Q 353.57 185.25 351.92 184.3 Q 350.27 183.35 348.92 182.01 Q 347.58 180.68 346.63 179.05 Q 345.67 177.42 345.15 175.54 Q 344.63 173.67 344.63 171.64 Q 344.63 168.52 345.8 165.81 Q 346.97 163.1 348.99 161.11 Q 351.01 159.11 353.7 157.96 Q 356.4 156.81 359.45 156.81 Q 362.57 156.81 365.28 157.98 Q 367.99 159.15 369.99 161.17 Q 371.98 163.19 373.13 165.88 Q 374.28 168.58 374.28 171.64 Q 374.28 173.71 373.75 175.6 Q 373.22 177.5 372.25 179.13 Q 371.29 180.76 369.92 182.08 Q 368.56 183.41 366.92 184.34 Q 365.28 185.27 363.38 185.79 Q 361.48 186.3 359.45 186.3 Z M 359.45 182.12 Q 361.69 182.12 363.64 181.3 Q 365.59 180.47 367.02 179.06 Q 368.46 177.64 369.28 175.73 Q 370.1 173.81 370.1 171.64 Q 370.1 169.4 369.26 167.45 Q 368.42 165.5 366.96 164.07 Q 365.5 162.63 363.58 161.81 Q 361.65 160.99 359.45 160.99 Q 357.24 160.99 355.29 161.84 Q 353.34 162.69 351.91 164.14 Q 350.47 165.59 349.64 167.52 Q 348.81 169.46 348.81 171.64 Q 348.81 173.85 349.66 175.77 Q 350.51 177.69 351.96 179.1 Q 353.4 180.52 355.34 181.32 Q 357.28 182.12 359.45 182.12 Z M 380.5 185.89 L 376.31 185.89 L 376.31 157.42 L 390.49 157.42 Q 392.5 157.42 394.25 158.17 Q 396 158.92 397.31 160.22 Q 398.63 161.53 399.39 163.27 Q 400.14 165.01 400.14 167.02 Q 400.14 168.48 399.72 169.84 Q 399.3 171.21 398.52 172.36 Q 397.75 173.52 396.65 174.44 Q 395.55 175.35 394.2 175.9 L 401.01 185.89 L 395.94 185.89 L 389.62 176.64 L 380.5 176.64 Z M 380.5 161.61 L 380.5 172.46 L 391.02 172.46 Q 392 172.46 392.9 171.97 Q 393.79 171.49 394.46 170.71 Q 395.14 169.93 395.54 168.96 Q 395.94 167.99 395.94 167.02 Q 395.94 165.89 395.51 164.91 Q 395.08 163.93 394.34 163.19 Q 393.6 162.45 392.61 162.03 Q 391.61 161.61 390.49 161.61 Z M 412.9 186.46 Q 410.74 186.46 408.66 185.76 Q 406.58 185.05 404.93 183.74 Q 403.28 182.42 402.21 180.57 Q 401.15 178.71 401 176.43 L 405.25 176.43 Q 405.33 177.85 406.06 178.94 Q 406.79 180.02 407.88 180.76 Q 408.98 181.5 410.31 181.89 Q 411.65 182.28 412.9 182.28 Q 413.57 182.28 414.39 182.19 Q 415.21 182.1 416.06 181.89 Q 416.9 181.68 417.69 181.35 Q 418.48 181.01 419.09 180.51 Q 419.71 180 420.07 179.34 Q 420.44 178.67 420.44 177.81 Q 420.44 177.01 420.03 176.39 Q 419.62 175.78 418.96 175.32 Q 418.29 174.86 417.45 174.52 Q 416.61 174.18 415.76 173.94 Q 414.91 173.71 414.1 173.55 Q 413.29 173.4 412.71 173.32 Q 411.54 173.13 410.29 172.86 Q 409.04 172.58 407.83 172.15 Q 406.62 171.72 405.54 171.1 Q 404.47 170.49 403.65 169.63 Q 402.83 168.76 402.35 167.65 Q 401.86 166.53 401.86 165.07 Q 401.86 163.62 402.34 162.45 Q 402.81 161.28 403.62 160.36 Q 404.43 159.43 405.51 158.77 Q 406.6 158.1 407.83 157.66 Q 409.06 157.22 410.36 157.01 Q 411.67 156.81 412.9 156.81 Q 414.97 156.81 416.92 157.51 Q 418.86 158.2 420.4 159.46 Q 421.94 160.73 422.92 162.51 Q 423.89 164.29 424.03 166.45 L 419.79 166.45 Q 419.71 165.16 419.06 164.14 Q 418.41 163.13 417.44 162.43 Q 416.47 161.73 415.27 161.36 Q 414.07 160.99 412.9 160.99 Q 412.28 160.99 411.54 161.07 Q 410.81 161.16 410.05 161.35 Q 409.29 161.55 408.58 161.85 Q 407.87 162.16 407.32 162.61 Q 406.77 163.06 406.44 163.67 Q 406.11 164.27 406.11 165.07 Q 406.11 165.79 406.48 166.35 Q 406.85 166.9 407.45 167.33 Q 408.06 167.76 408.82 168.07 Q 409.57 168.38 410.34 168.59 Q 411.11 168.81 411.83 168.94 Q 412.55 169.07 413.06 169.15 Q 414.27 169.34 415.6 169.64 Q 416.94 169.93 418.23 170.39 Q 419.52 170.84 420.69 171.48 Q 421.86 172.13 422.75 173.03 Q 423.64 173.93 424.17 175.11 Q 424.69 176.29 424.69 177.81 Q 424.69 179.33 424.18 180.57 Q 423.66 181.81 422.78 182.76 Q 421.9 183.72 420.73 184.41 Q 419.56 185.11 418.25 185.57 Q 416.94 186.03 415.56 186.25 Q 414.19 186.46 412.9 186.46 Z" style="text-wrap-mode: nowrap;" class="st2" /></g></svg>