<svg version="1.2" xmlns="http://www.w3.org/2000/svg" viewBox="0 0 1969 78" width="1000" height="40">
	<title>Shape 1 copy</title>
	<style>
		tspan { white-space:pre } 
		.s0 { fill: #000000 } 
	</style>
	<path id="AUTOMOBILE copy" fill-rule="evenodd" class="s0" d="m458.1 77.4l-6.8-14.4h-32.8l-6.9 14.4h-14.2l5.5-11.4 1.5-3 6.2-12.6 17.2-35.7 7.1-14.6 7 14.6 17.2 35.7 6.2 12.6 1.4 3 5.6 11.4zm-33.6-27h20.6l-10.3-21.2zm134.9 14.3c9.6 0 17.6-7.9 17.6-17.6v-47h12.6v47c0 10.1-5 19.1-12.6 24.6-5 3.6-11.1 5.7-17.6 5.7-6.6 0-12.6-2.1-17.6-5.7-7.6-5.5-12.6-14.5-12.6-24.6v-47h12.6v47c0 9.7 8 17.6 17.6 17.6zm94.9-51.9v-12.7h58.5v12.7h-22.9v64.6h-12.6v-64.6zm157.3-12.7h2.8c21.2 0 38.6 17.4 38.6 38.6 0 21.3-17.4 38.7-38.6 38.7h-2.8c-21.3 0-38.6-17.4-38.6-38.7 0-21.2 17.3-38.6 38.6-38.6zm0 12.7c-14.3 0-26 11.7-26 25.9 0 14.3 11.7 26 26 26h2.8c14.3 0 25.9-11.7 25.9-26 0-14.2-11.6-25.9-25.9-25.9zm168.6 64.6l-7.7-39.9-19.3 36.1-19.4-36.1-7.8 39.9h-12.8l11-57.5 3.9-19.8 9.4 17.7 15.7 29 15.6-29 9.4-17.7 3.8 19.8 11.1 57.5zm109.7-77.3h2.8c21.2 0 38.6 17.4 38.6 38.6 0 21.3-17.4 38.7-38.6 38.7h-2.8c-21.3 0-38.6-17.4-38.6-38.7 0-21.2 17.3-38.6 38.6-38.6zm0 12.7c-14.3 0-26 11.7-26 25.9 0 14.3 11.7 26 26 26h2.8c14.3 0 25.9-11.7 25.9-26 0-14.2-11.6-25.9-25.9-25.9zm106-12.7h38.7c12.4 0 22.4 10.2 22.4 22.5 0 3.5-0.8 6.9-2.2 9.8-0.9 1.9-2 3.5-3.4 5.1 0.5 0.4 1 0.8 1.4 1.2 2 1.9 3.5 4.1 4.7 6.4 1.4 3 2.2 6.2 2.2 9.8 0 12.3-10.1 22.5-22.4 22.5h-41.4zm41.4 64.6c5.4 0 9.7-4.5 9.7-9.8 0-5.4-4.3-9.9-9.7-9.9h-28.7v19.7zm-2.7-32.4c5.4 0 9.8-4.4 9.8-9.7 0-5.4-4.4-9.8-9.8-9.8h-26v19.5zm89.8-32.2h12.6v77.2h-12.6zm77.3 77.3v-77.3h12.7v64.6h40.3v12.7zm171.9 0h-54.3v-77.3h54.3v12.7h-41.6v19.6h41.6v12.7h-41.6v19.6h41.6z"/>
	<path id="Shape 1" fill-rule="evenodd" class="s0" d="m341.3 41.9c1.5 0 2.7 1.2 2.7 2.7 0 1.4-1.2 2.6-2.7 2.6h-338.6c-1.5 0-2.7-1.2-2.7-2.6 0-1.5 1.2-2.7 2.7-2.7z"/>
	<path id="Shape 1 copy" fill-rule="evenodd" class="s0" d="m1966.3 41.9c1.5 0 2.7 1.2 2.7 2.7 0 1.4-1.2 2.6-2.7 2.6h-338.6c-1.5 0-2.7-1.2-2.7-2.6 0-1.5 1.2-2.7 2.7-2.7z"/>
</svg>