<?xml version="1.0" encoding="utf-8"?>
<!-- Generator: Adobe Illustrator 27.8.0, SVG Export Plug-In . SVG Version: 6.00 Build 0)  -->
<svg version="1.1" id="Layer_1" xmlns="http://www.w3.org/2000/svg" xmlns:xlink="http://www.w3.org/1999/xlink" x="0px" y="0px"
	 viewBox="0 0 600 300" style="enable-background: new 0 0 600 600" xml:space="preserve">
<style type="text/css">
	.st0{fill:#2F4450;}
	.st1{fill:#5BAAEC;}
</style>
<path id="path452423" class="st1" d="M 492.5 278.8 H 544 l -86.9 -156.5 L 429.9 73 l -26 46.5 l -88.3 159.2 h 54.8 l 60.9 -109.9 L 492.5 278.8 z"/>
<!-- <path transform="matrix(-1,0,0,-1,316.3,841.1)" id="path452437" class="st0" d="M 214.5 317.7 v 76.7 l -56.2 -76.7 l -56.5 76.7 v -76.7 H 56.1 v 205.7 l 44.9 -61.2 l 57.3 -77.5 l 101.9 138.7 V 317.7 H 214.5 z"/> -->
<!-- <path transform="matrix(-1,0,0,-1,859.6,351.8)" id="path452423" class="st0" d="M 491.5 33.8 H 543 l -86.9 -156.5 L 428.9 -170.5 l -26 46.5 l -88.3 159.2 h 54.8 l 60.9 -109.9 L 491.5 33.8 z"/> -->
<path transform="matrix(-1,0,0,-1,317.7,351.2)" id="path452421" class="st1" d="M 260.9 278.5 V 72.7 L 159 211.5 l -57.3 -77.5 L 56.8 72.7 v 205.7 h 45.7 v -76.7 l 56.5 76.7 l 56.2 -76.7 v 76.7 L 260.9 278.5 z"/>
</svg>
