<?xml version="1.0" encoding="utf-8"?>
<svg xmlns="http://www.w3.org/2000/svg" viewBox="70.047 141.922 67.3281 78.458" width="67.3281px" height="78.458px"><g id="object-0">
    <style>
    .s0 { fill: #000000 } 
    .st0{fill:#2F4450;}
    .st1{fill:#5BAAEC;}
    .st2{fill: rgb(143, 140, 241)}
    </style>
    <path d="M 112.21 150.46 L 100.72 178.92 L 92.15 157.51 L 83.56 178.92 L 72.07 150.46 L 76.48 150.46 L 83.56 167.91 L 90.59 150.46 L 93.69 150.46 L 100.74 167.89 L 107.82 150.46 Z M 136.33 178.92 L 114.24 178.92 L 114.24 150.46 L 136.33 150.46 L 136.33 154.64 L 118.42 154.64 L 118.42 162.58 L 135.24 162.58 L 135.24 166.76 L 118.42 166.76 L 118.42 174.74 L 136.33 174.74 Z" class="st0" style="text-wrap-mode: nowrap;"/>
    <path class="st2" style="text-wrap-mode: nowrap;" d="M 111.21 -211.84 L 99.72 -183.38 L 91.15 -204.79 L 82.56 -183.38 L 71.07 -211.84 L 75.48 -211.84 L 82.56 -194.39 L 89.59 -211.84 L 92.69 -211.84 L 99.74 -194.41 L 106.82 -211.84 Z" transform="matrix(1, 0, 0, -1, 0, 0)" />
    <path d="M 121.35 211.55 Q 119.28 211.55 117.37 211.03 Q 115.46 210.51 113.81 209.55 Q 112.16 208.6 110.82 207.27 Q 109.47 205.93 108.52 204.3 Q 107.57 202.67 107.04 200.8 Q 106.52 198.92 106.52 196.89 Q 106.52 193.77 107.69 191.07 Q 108.86 188.36 110.88 186.36 Q 112.9 184.36 115.6 183.21 Q 118.29 182.06 121.35 182.06 Q 124.47 182.06 127.17 183.23 Q 129.88 184.4 131.88 186.42 Q 133.88 188.44 135.03 191.14 Q 136.18 193.83 136.18 196.89 Q 136.18 198.96 135.64 200.86 Q 135.11 202.76 134.15 204.39 Q 133.18 206.02 131.82 207.34 Q 130.45 208.66 128.81 209.59 Q 127.17 210.53 125.28 211.04 Q 123.38 211.55 121.35 211.55 Z M 121.35 207.37 Q 123.58 207.37 125.53 206.55 Q 127.48 205.73 128.92 204.31 Q 130.35 202.9 131.17 200.98 Q 131.99 199.06 131.99 196.89 Q 131.99 194.65 131.15 192.71 Q 130.31 190.76 128.85 189.32 Q 127.4 187.89 125.47 187.07 Q 123.54 186.25 121.35 186.25 Q 119.13 186.25 117.19 187.1 Q 115.24 187.95 113.8 189.39 Q 112.37 190.84 111.54 192.78 Q 110.7 194.72 110.7 196.89 Q 110.7 199.1 111.56 201.02 Q 112.41 202.94 113.85 204.35 Q 115.3 205.77 117.24 206.57 Q 119.17 207.37 121.35 207.37 Z" class="st2" style="text-wrap-mode: nowrap;"/></g>
</svg>