<svg version="1.2" xmlns="http://www.w3.org/2000/svg" viewBox="0 0 1972 450" width="1000" height="228">
	<title>Shape 1 copy</title>
	<style>
		.s0 { fill: #000000 } 
		.st0{fill:#2F4450;}
	    .st1{fill:#5BAAEC;}
	</style>
	<path id="WEBORA" fill-rule="evenodd" class="st1" d="m379.2 7.1h46.4l-121.4 300.9-90.6-226.3-90.8 226.3-121.5-300.9h46.7l74.8 184.5 74.3-184.5h32.8l74.5 184.3zm319.8 256.7v44.2h-233.5v-300.9h233.5v44.2h-189.3v83.9h177.8v44.2h-177.8v84.4zm205.1 44.2h-165.2v-300.9h155.7q18 0 33.8 6.7 15.8 6.5 27.5 18.2 11.8 11.5 18.5 27.3 6.7 15.6 6.7 33.6 0 16.9-6.3 32.3-6.3 15.2-18.2 27.3 16 12.4 25.1 30.8 9.2 18.2 9.2 38.4 0 17.8-7 33.6-6.7 15.6-18.6 27.3-11.7 11.7-27.6 18.7-15.6 6.7-33.6 6.7zm-9.5-256.7h-111.4v83.9h111.4q8.9 0 16.5-3.3 7.8-3.4 13.4-9.1 5.6-5.6 8.9-13.4 3.5-7.8 3.5-16.5 0-8.9-3.5-16.5-3.3-7.6-8.9-13-5.6-5.6-13.4-8.9-7.6-3.2-16.5-3.2zm9.5 128.1h-120.9v84.4h120.9q8.9 0 16.5-3.3 7.8-3.3 13.4-8.9 5.7-5.6 8.9-13.2 3.5-7.8 3.5-16.7 0-8.9-3.5-16.5-3.2-7.8-8.9-13.4-5.6-5.7-13.4-8.9-7.6-3.5-16.5-3.5zm268.2 132.9q-21.9 0-42.1-5.4-20.1-5.6-37.7-15.6-17.3-10.2-31.6-24.3-14.1-14.1-24.3-31.2-10-17.4-15.6-37.1-5.4-19.9-5.4-41.4 0-32.9 12.3-61.6 12.4-28.6 33.6-49.6 21.5-21.3 49.9-33.4 28.6-12.1 60.9-12.1 33 0 61.6 12.3 28.6 12.4 49.6 33.8 21.3 21.3 33.4 49.9 12.2 28.4 12.2 60.7 0 21.9-5.7 42.1-5.6 19.9-15.8 37.3-10.2 17.1-24.7 31.2-14.3 13.8-31.7 23.8-17.3 9.8-37.5 15.2-19.9 5.4-41.4 5.4zm0-44.2q23.6 0 44.2-8.7 20.6-8.7 35.8-23.6 15.2-15 23.9-35.1 8.6-20.4 8.6-43.4 0-23.6-8.9-44.2-8.9-20.6-24.2-35.8-15.4-15.2-35.8-23.8-20.4-8.7-43.6-8.7-23.4 0-44 9.1-20.6 8.9-35.8 24.3-15.2 15.1-24 35.7-8.7 20.4-8.7 43.4 0 23.4 8.9 43.8 9.1 20.2 24.3 35.1 15.4 15 35.7 23.4 20.6 8.5 43.6 8.5zm240.9-57.9v97.8h-44.3v-300.9h149.8q21.3 0 39.7 8 18.7 7.8 32.5 21.7 13.9 13.6 21.9 32 8.1 18.5 8.1 39.7 0 15.4-4.6 29.9-4.3 14.4-12.6 26.7-8.2 12.1-19.9 21.9-11.5 9.5-25.8 15.4l72 105.6h-53.6l-66.8-97.8zm105.6-158.9h-105.6v114.7h111.3q10.4 0 19.7-5 9.5-5.2 16.7-13.5 7.1-8.2 11.3-18.4 4.3-10.4 4.3-20.6 0-11.9-4.6-22.3-4.5-10.4-12.3-18.2-7.8-7.8-18.4-12.2-10.4-4.5-22.4-4.5zm301.8 51.8l-101.9 204.9h-48.8l150.7-300.9 150.7 300.9h-54.9z"/>
	<path id="AUTOMOBILE copy" fill-rule="evenodd" class="st0" d="m459.1 449.4l-6.8-14.4h-32.8l-6.9 14.4h-14.2l5.5-11.4 1.5-3 6.2-12.6 17.2-35.7 7.1-14.6 7 14.6 17.2 35.7 6.2 12.6 1.4 3 5.6 11.4zm-33.6-27h20.6l-10.3-21.2zm134.9 14.3c9.6 0 17.6-7.9 17.6-17.6v-47h12.6v47c0 10.1-5 19.1-12.6 24.6-5 3.6-11.1 5.7-17.6 5.7-6.6 0-12.6-2.1-17.6-5.7-7.6-5.5-12.6-14.5-12.6-24.6v-47h12.6v47c0 9.7 8 17.6 17.6 17.6zm94.9-51.9v-12.7h58.5v12.7h-22.9v64.6h-12.6v-64.6zm157.3-12.7h2.8c21.2 0 38.6 17.4 38.6 38.6 0 21.3-17.4 38.7-38.6 38.7h-2.8c-21.3 0-38.6-17.4-38.6-38.7 0-21.2 17.3-38.6 38.6-38.6zm0 12.7c-14.3 0-26 11.7-26 25.9 0 14.3 11.7 26 26 26h2.8c14.3 0 25.9-11.7 25.9-26 0-14.2-11.6-25.9-25.9-25.9zm168.6 64.6l-7.7-39.9-19.3 36.1-19.4-36.1-7.8 39.9h-12.8l11-57.5 3.9-19.8 9.4 17.7 15.7 29 15.6-29 9.4-17.7 3.8 19.8 11.1 57.5zm109.7-77.3h2.8c21.2 0 38.6 17.4 38.6 38.6 0 21.3-17.4 38.7-38.6 38.7h-2.8c-21.3 0-38.6-17.4-38.6-38.7 0-21.2 17.3-38.6 38.6-38.6zm0 12.7c-14.3 0-26 11.7-26 25.9 0 14.3 11.7 26 26 26h2.8c14.3 0 25.9-11.7 25.9-26 0-14.2-11.6-25.9-25.9-25.9zm106-12.7h38.7c12.4 0 22.4 10.2 22.4 22.5 0 3.5-0.8 6.9-2.2 9.8-0.9 1.9-2 3.5-3.4 5.1 0.5 0.4 1 0.8 1.4 1.2 2 1.9 3.5 4.1 4.7 6.4 1.4 3 2.2 6.2 2.2 9.8 0 12.3-10.1 22.5-22.4 22.5h-41.4zm41.4 64.6c5.4 0 9.7-4.5 9.7-9.8 0-5.4-4.3-9.9-9.7-9.9h-28.7v19.7zm-2.7-32.4c5.4 0 9.8-4.4 9.8-9.7 0-5.4-4.4-9.8-9.8-9.8h-26v19.5zm89.8-32.2h12.6v77.2h-12.6zm77.3 77.3v-77.3h12.7v64.6h40.3v12.7zm171.9 0h-54.3v-77.3h54.3v12.7h-41.6v19.6h41.6v12.7h-41.6v19.6h41.6z"/>
	<path id="Shape 1" fill-rule="evenodd" class="st0" d="m342.3 413.9c1.5 0 2.7 1.2 2.7 2.7 0 1.4-1.2 2.6-2.7 2.6h-338.6c-1.5 0-2.7-1.2-2.7-2.6 0-1.5 1.2-2.7 2.7-2.7z"/>
	<path id="Shape 1 copy" fill-rule="evenodd" class="st0" d="m1967.3 413.9c1.5 0 2.7 1.2 2.7 2.7 0 1.4-1.2 2.6-2.7 2.6h-338.6c-1.5 0-2.7-1.2-2.7-2.6 0-1.5 1.2-2.7 2.7-2.7z"/>
</svg>