<svg version="1.2" xmlns="http://www.w3.org/2000/svg" viewBox="0 0 1971 313" width="1000" height="159">
	<title>WEBORA</title>
	<style>
		tspan { white-space:pre } 
		.s0 { fill: red } 
		.st0{fill:#2F4450;}
		.st1{fill:#5BAAEC;}
	</style>
	<path id="WEBORA" fill-rule="evenodd" class="st1" d="m378.2 7.1h46.4l-121.4 300.9-90.6-226.3-90.8 226.3-121.5-300.9h46.7l74.8 184.5 74.3-184.5h32.8l74.5 184.3zm319.8 256.7v44.2h-233.5v-300.9h233.5v44.2h-189.3v83.9h177.8v44.2h-177.8v84.4zm205.1 44.2h-165.2v-300.9h155.7q18 0 33.8 6.7 15.8 6.5 27.5 18.2 11.8 11.5 18.5 27.3 6.7 15.6 6.7 33.6 0 16.9-6.3 32.3-6.3 15.2-18.2 27.3 16 12.4 25.1 30.8 9.2 18.2 9.2 38.4 0 17.8-7 33.6-6.7 15.6-18.6 27.3-11.7 11.7-27.6 18.7-15.6 6.7-33.6 6.7zm-9.5-256.7h-111.4v83.9h111.4q8.9 0 16.5-3.3 7.8-3.4 13.4-9.1 5.6-5.6 8.9-13.4 3.5-7.8 3.5-16.5 0-8.9-3.5-16.5-3.3-7.6-8.9-13-5.6-5.6-13.4-8.9-7.6-3.2-16.5-3.2zm9.5 128.1h-120.9v84.4h120.9q8.9 0 16.5-3.3 7.8-3.3 13.4-8.9 5.7-5.6 8.9-13.2 3.5-7.8 3.5-16.7 0-8.9-3.5-16.5-3.2-7.8-8.9-13.4-5.6-5.7-13.4-8.9-7.6-3.5-16.5-3.5zm268.2 132.9q-21.9 0-42.1-5.4-20.1-5.6-37.7-15.6-17.3-10.2-31.6-24.3-14.1-14.1-24.3-31.2-10-17.4-15.6-37.1-5.4-19.9-5.4-41.4 0-32.9 12.3-61.6 12.4-28.6 33.6-49.6 21.5-21.3 49.9-33.4 28.6-12.1 60.9-12.1 33 0 61.6 12.3 28.6 12.4 49.6 33.8 21.3 21.3 33.4 49.9 12.2 28.4 12.2 60.7 0 21.9-5.7 42.1-5.6 19.9-15.8 37.3-10.2 17.1-24.7 31.2-14.3 13.8-31.7 23.8-17.3 9.8-37.5 15.2-19.9 5.4-41.4 5.4zm0-44.2q23.6 0 44.2-8.7 20.6-8.7 35.8-23.6 15.2-15 23.9-35.1 8.6-20.4 8.6-43.4 0-23.6-8.9-44.2-8.9-20.6-24.2-35.8-15.4-15.2-35.8-23.8-20.4-8.7-43.6-8.7-23.4 0-44 9.1-20.6 8.9-35.8 24.3-15.2 15.1-24 35.7-8.7 20.4-8.7 43.4 0 23.4 8.9 43.8 9.1 20.2 24.3 35.1 15.4 15 35.7 23.4 20.6 8.5 43.6 8.5zm240.9-57.9v97.8h-44.3v-300.9h149.8q21.3 0 39.7 8 18.7 7.8 32.5 21.7 13.9 13.6 21.9 32 8.1 18.5 8.1 39.7 0 15.4-4.6 29.9-4.3 14.4-12.6 26.7-8.2 12.1-19.9 21.9-11.5 9.5-25.8 15.4l72 105.6h-53.6l-66.8-97.8zm105.6-158.9h-105.6v114.7h111.3q10.4 0 19.7-5 9.5-5.2 16.7-13.5 7.1-8.2 11.3-18.4 4.3-10.4 4.3-20.6 0-11.9-4.6-22.3-4.5-10.4-12.3-18.2-7.8-7.8-18.4-12.2-10.4-4.5-22.4-4.5zm301.8 51.8l-101.9 204.9h-48.8l150.7-300.9 150.7 300.9h-54.9z"/>
</svg>